<?xml version="1.0" encoding="utf-8"?>
<!-- Generator: Adobe Illustrator 16.0.0, SVG Export Plug-In . SVG Version: 6.00 Build 0)  -->
<!DOCTYPE svg PUBLIC "-//W3C//DTD SVG 1.1//EN" "http://www.w3.org/Graphics/SVG/1.1/DTD/svg11.dtd">
<svg version="1.1" id="Layer_1_copy" xmlns="http://www.w3.org/2000/svg" xmlns:xlink="http://www.w3.org/1999/xlink" x="0px"
	 y="0px" width="32px" height="32px" viewBox="0 0 32 32" enable-background="new 0 0 32 32" xml:space="preserve">
<rect width="32" height="33"/>
<g>
	<defs>
		<rect id="SVGID_1_" x="1.125" y="1.5" width="30" height="30"/>
	</defs>
	<clipPath id="SVGID_2_">
		<use xlink:href="#SVGID_1_"  overflow="visible"/>
	</clipPath>
	<path clip-path="url(#SVGID_2_)" fill="#B4A168" d="M30.324,16.435c0.023-0.916,0.09-1.835-0.162-2.735
		c-0.173-0.62-0.272-1.263-0.484-1.865c-0.371-1.061-0.83-2.079-1.452-3.026c-0.425-0.65-0.876-1.273-1.39-1.849
		c-0.316-0.357-0.664-0.689-1.012-1.017c-0.31-0.29-0.623-0.577-0.961-0.832c-0.381-0.286-0.783-0.548-1.194-0.791
		c-0.534-0.316-1.073-0.629-1.636-0.89c-0.67-0.312-1.363-0.583-2.088-0.749c-0.902-0.208-1.796-0.465-2.737-0.438
		c-0.501,0.015-1.006,0.01-1.507,0.001c-0.745-0.011-1.478,0.033-2.211,0.19c-1.016,0.219-2.01,0.493-2.961,0.913
		C9.318,3.882,8.195,4.562,7.167,5.402c-0.565,0.464-1.085,0.971-1.574,1.51C5.295,7.242,5.026,7.599,4.75,7.946
		c-0.567,0.71-1.019,1.496-1.407,2.311c-0.417,0.875-0.751,1.788-0.97,2.739c-0.218,0.959-0.415,1.92-0.35,2.913
		c0.021,0.306,0.007,0.612,0.003,0.919c-0.01,0.775-0.011,1.549,0.195,2.309c0.173,0.641,0.288,1.302,0.505,1.928
		c0.365,1.049,0.811,2.069,1.451,2.988c0.28,0.402,0.538,0.82,0.842,1.203c0.337,0.425,0.694,0.837,1.079,1.219
		c0.44,0.434,0.905,0.85,1.39,1.234c0.381,0.304,0.799,0.564,1.22,0.811c0.544,0.322,1.095,0.637,1.666,0.906
		c0.658,0.309,1.341,0.572,2.056,0.737c0.902,0.208,1.796,0.462,2.738,0.439c0.785-0.019,1.572-0.003,2.359-0.005
		c0.121,0,0.242-0.001,0.359-0.019c1.232-0.184,2.436-0.466,3.6-0.927c0.928-0.368,1.797-0.844,2.631-1.379
		c0.568-0.363,1.089-0.803,1.617-1.227c0.641-0.517,1.154-1.158,1.67-1.797c0.79-0.975,1.394-2.057,1.871-3.211
		c0.224-0.543,0.47-1.078,0.583-1.665c0.138-0.716,0.358-1.419,0.45-2.139C30.385,17.643,30.324,17.035,30.324,16.435 M16.12,1.502
		c7.767-0.137,15.06,6.244,15.005,15.103c-0.053,8.334-6.824,14.996-15.17,14.894C7.19,31.393,0.964,24.064,1.128,16.194
		C1.299,8.083,8.04,1.396,16.12,1.502"/>
	<path clip-path="url(#SVGID_2_)" fill="#B4A168" d="M29.089,15.162c0.083,1.036,0.089,2.076-0.11,3.102
		c-0.148,0.764-0.289,1.537-0.538,2.271l-0.167-0.058c0.07-0.182,0.066-0.381,0.021-0.602c-0.016-0.074-0.02-0.152-0.037-0.226
		c-0.142-0.653-0.318-1.295-0.721-1.845c-0.096-0.13-0.198-0.253-0.273-0.348c0.202-0.264,0.393-0.5,0.57-0.744
		c0.229-0.315,0.341-0.682,0.432-1.055c0.164-0.687,0.328-1.373,0.496-2.077l0.137-0.032C29.029,14.078,29.045,14.625,29.089,15.162
		"/>
	<path clip-path="url(#SVGID_2_)" fill="#B4A168" d="M28.899,13.549l-0.137,0.032c-0.473-0.179-0.835-0.522-1.155-0.891
		c-0.453-0.52-0.967-0.911-1.645-1.065c-0.002-0.001-0.006-0.002-0.007-0.005c0.046-0.261,0.104-0.505,0.123-0.751
		c0.04-0.557,0.092-1.117-0.158-1.645c-0.124-0.266-0.165-0.542-0.155-0.831c0-0.072,0-0.146,0-0.217l0.485-0.002
		c0.071,0.089,0.142,0.179,0.21,0.271c0.505,0.674,0.971,1.368,1.345,2.12c0.325,0.653,0.644,1.312,0.788,2.039
		c0.049,0.243,0.163,0.475,0.24,0.712C28.857,13.394,28.88,13.472,28.899,13.549"/>
	<path clip-path="url(#SVGID_2_)" fill="#B4A168" d="M28.439,20.534c-0.009,0.027-0.019,0.056-0.028,0.083
		c-0.271,0.768-0.647,1.506-1.046,2.219c-0.703,1.258-1.632,2.35-2.646,3.365c-0.207,0.207-0.44,0.395-0.684,0.559
		c-0.516,0.35-1.024,0.713-1.57,1.01c-1.186,0.641-2.408,1.182-3.75,1.432l-0.025-0.145c0.393-0.285,0.752-0.57,1.133-0.82
		c0.377-0.246,0.731-0.514,1.056-0.827c0.224-0.218,0.345-0.474,0.354-0.783c0.004-0.115,0.014-0.231,0.025-0.39
		c0.438,0.193,0.843,0.166,1.258,0.1c0.738-0.119,1.439-0.357,2.141-0.602c0.177-0.062,0.275-0.178,0.344-0.361
		c0.12-0.326,0.271-0.645,0.425-0.955c0.298-0.6,0.463-1.221,0.358-1.908c0.087-0.039,0.18-0.072,0.262-0.121
		c0.334-0.204,0.689-0.383,0.99-0.628c0.346-0.282,0.623-0.647,0.969-0.931c0.135-0.109,0.221-0.228,0.27-0.354L28.439,20.534z"/>
	<path clip-path="url(#SVGID_2_)" fill="#B4A168" d="M27.989,13.771c0.009,0.004,0.013,0.016,0.05,0.068
		c-0.209,0.201-0.342,0.432-0.438,0.681l-1.012-0.132c-0.001-0.023-0.004-0.047-0.006-0.07c-0.258-0.023-0.515-0.053-0.772-0.068
		c-0.332-0.021-0.646-0.099-0.933-0.271c-0.381-0.229-0.471-0.594-0.439-0.99c0.03-0.375,0.252-0.648,0.605-0.786
		c0.113-0.044,0.258-0.042,0.38-0.017c0.413,0.084,0.714,0.363,1.017,0.629c0.074,0.064,0.147,0.133,0.207,0.209
		c0.322,0.408,0.758,0.612,1.255,0.704C27.934,13.732,27.961,13.754,27.989,13.771"/>
	<path clip-path="url(#SVGID_2_)" fill="#B4A168" d="M27.584,19.957c0.096,0.189,0.078,0.293-0.121,0.349
		c-0.295,0.083-0.539,0.233-0.761,0.419L26.23,20.01c0.057,0,0.117-0.027,0.246-0.057c-0.254-0.13-0.438-0.219-0.619-0.318
		c-0.16-0.09-0.323-0.177-0.467-0.287c-0.484-0.373-0.609-0.894-0.366-1.449c0.036-0.079,0.082-0.159,0.091-0.242
		c0.027-0.327,0.098-0.322,0.437-0.363c0.3-0.037,0.564,0.084,0.757,0.312c0.139,0.165,0.256,0.353,0.355,0.545
		C26.977,18.748,27.275,19.355,27.584,19.957"/>
	<path clip-path="url(#SVGID_2_)" fill="#B4A168" d="M26.59,14.389l1.012,0.132c-0.096,0.249-0.153,0.515-0.209,0.788
		c-0.167,0.814-0.7,1.33-1.488,1.582c-0.164,0.055-0.318,0.029-0.476-0.037c-0.158-0.067-0.249-0.158-0.247-0.341
		c0-0.105-0.034-0.215-0.068-0.317c-0.188-0.559,0.056-1.141,0.593-1.396C26,14.66,26.295,14.525,26.59,14.389"/>
	<path clip-path="url(#SVGID_2_)" fill="#B4A168" d="M26.23,20.01l0.472,0.715c-0.132,0.111-0.259,0.236-0.383,0.365
		c-0.404,0.422-0.892,0.693-1.509,0.645c-0.475-0.035-0.727-0.344-0.654-0.813c0.014-0.086,0.04-0.177,0.027-0.26
		c-0.042-0.25,0.098-0.39,0.287-0.496c0.28-0.157,0.572-0.265,0.903-0.228c0.281,0.031,0.563,0.054,0.846,0.072H26.23z"/>
	<path clip-path="url(#SVGID_2_)" fill="#B4A168" d="M26.251,8.174l-0.485,0.002c0-0.072,0-0.145,0-0.214
		c-0.664-0.058-1.25-0.208-1.783-0.528c-0.309-0.186-0.646-0.285-1-0.261c-0.377,0.023-0.749,0.084-1.149,0.132
		c-0.05-0.595-0.335-1.129-0.706-1.601c-0.4-0.508-0.791-1.017-1.073-1.615l0.044-0.131c0.889,0.297,1.768,0.637,2.568,1.131
		c0.676,0.417,1.339,0.868,1.945,1.378C25.216,6.976,25.758,7.551,26.251,8.174"/>
	<path clip-path="url(#SVGID_2_)" fill="#B4A168" d="M25.045,9.979c0.002,0.273,0.039,0.545,0.035,0.818
		c-0.002,0.273-0.056,0.535-0.195,0.785c-0.199,0.353-0.525,0.498-0.982,0.309c-0.224-0.093-0.424-0.267-0.597-0.441
		c-0.073-0.071-0.082-0.246-0.06-0.362c0.078-0.406,0.15-0.821,0.479-1.124c0.027-0.025,0.031-0.074,0.05-0.123
		c-0.128-0.064-0.196,0.029-0.271,0.076c-0.203,0.126-0.417,0.219-0.641,0.309c-0.498,0.193-0.908-0.053-1.249-0.441
		c-0.3-0.343-0.286-0.719-0.228-1.108c0.049-0.326,0.406-0.572,0.809-0.599c0.411-0.029,0.797,0.077,1.191,0.183
		c0.364,0.097,0.742,0.165,1.117,0.216c0.176,0.024,0.36-0.018,0.545-0.031C25.047,8.98,25.039,9.48,25.045,9.979"/>
	<path clip-path="url(#SVGID_2_)" fill="#B4A168" d="M24.256,21.928c0.324,0.227,0.611,0.753,0.473,1.264
		c-0.164,0.604-0.396,1.205-0.345,1.91c-0.22,0.047-0.41,0.087-0.599,0.132c-0.014,0.003-0.025,0.007-0.039,0.011l-0.184-0.771
		c-0.018-0.27-0.131-0.437-0.238-0.603c-0.094-0.148-0.143-0.309-0.199-0.474c-0.199-0.599,0.104-1.013,0.467-1.408
		C23.814,21.746,23.98,21.737,24.256,21.928"/>
	<path clip-path="url(#SVGID_2_)" fill="#B4A168" d="M23.687,15.547c0.595,0.314,0.886,0.879,0.786,1.547
		c-0.002,0.012-0.003,0.021-0.004,0.031c-0.158,1.232-1.117,1.477-2.037,1.203c-0.328-0.097-0.586-0.535-0.594-0.863
		c-0.002-0.131,0-0.262,0-0.393c-0.004,0-0.006,0-0.011-0.002c0.024-0.303,0.042-0.607,0.075-0.909
		c0.053-0.497,0.339-0.761,0.836-0.794C23.07,15.344,23.387,15.389,23.687,15.547"/>
	<path clip-path="url(#SVGID_2_)" fill="#B4A168" d="M23.65,12.904c0.488,1.022-0.136,1.91-1.086,2.178
		c-0.287,0.081-0.549-0.038-0.725-0.271c-0.387-0.513-0.764-1.032-1.02-1.63c-0.076-0.182-0.102-0.349,0.007-0.526
		c0.313-0.521,0.786-0.762,1.341-0.812C22.922,11.873,23.359,12.297,23.65,12.904"/>
	<path clip-path="url(#SVGID_2_)" fill="#B4A168" d="M23.562,24.474l0.184,0.771c-0.346,0.082-0.695,0.159-1.039,0.256
		c-0.59,0.167-1.102-0.005-1.561-0.365c-0.121-0.096-0.207-0.25-0.281-0.392c-0.052-0.099-0.027-0.205,0.075-0.29
		c0.194-0.16,0.359-0.358,0.567-0.494c0.251-0.164,0.545-0.229,0.844-0.145c0.358,0.104,0.703,0.242,0.99,0.492
		C23.396,24.354,23.457,24.395,23.562,24.474"/>
	<path clip-path="url(#SVGID_2_)" fill="#B4A168" d="M23.596,20.337c0.002,0.835-0.632,1.597-1.405,1.62
		c-0.572,0.018-1.077-0.168-1.356-0.73c-0.02-0.041-0.041-0.078-0.062-0.118c-0.231-0.454-0.231-0.465,0.114-0.856
		c0.324-0.365,0.574-0.77,0.707-1.242c0.021-0.074,0.039-0.15,0.074-0.218c0.117-0.228,0.385-0.312,0.613-0.194
		c0.371,0.194,0.697,0.449,0.965,0.774C23.477,19.65,23.605,19.971,23.596,20.337"/>
	<path clip-path="url(#SVGID_2_)" fill="#B4A168" d="M21.316,10.607c0.041,0.133,0.051,0.277,0.07,0.381
		c-0.027,0.598-0.287,1.007-0.77,1.284c-0.191,0.11-0.372,0.097-0.555-0.01c-0.264-0.154-0.522-0.315-0.787-0.466
		c-0.229-0.129-0.453-0.27-0.695-0.361c-0.242-0.094-0.328-0.258-0.354-0.492c-0.1-0.896,0.698-1.8,1.719-1.548
		C20.623,9.562,21.104,9.929,21.316,10.607"/>
	<path clip-path="url(#SVGID_2_)" fill="#B4A168" d="M16.377,18.191c0.921,0.01,1.707-0.799,1.707-1.722
		c0-0.989-0.834-1.788-1.881-1.78c-0.813,0.008-1.71,0.586-1.723,1.705C14.467,17.557,15.42,18.182,16.377,18.191 M20.54,15.523
		c0.446,0.122,0.738,0.533,0.71,0.98c-0.033,0.506-0.365,0.816-0.879,0.82c-0.086,0.002-0.172,0-0.27,0
		c-0.075,0.131-0.057,0.214,0.085,0.286c0.136,0.07,0.267,0.153,0.377,0.257c0.354,0.332,0.403,0.812,0.132,1.148
		c-0.289,0.359-0.854,0.441-1.234,0.188c-0.075-0.051-0.139-0.191-0.299-0.062c0.053,0.068,0.1,0.133,0.149,0.194
		c0.247,0.296,0.266,0.655,0.028,0.962c-0.258,0.334-0.577,0.553-1.027,0.533c-0.322-0.013-0.566-0.137-0.736-0.412
		c-0.036-0.062-0.084-0.116-0.163-0.226c-0.056,0.362-0.087,0.694-0.387,0.865c-0.177,0.101-0.38,0.178-0.578,0.204
		c-0.28,0.035-0.524-0.093-0.757-0.252c-0.257-0.176-0.223-0.466-0.293-0.778c-0.223,0.252-0.355,0.515-0.658,0.534
		c-0.172,0.011-0.353,0.021-0.518-0.017c-0.154-0.036-0.311-0.114-0.435-0.212c-0.305-0.238-0.327-0.59-0.079-1.052
		c-0.045-0.056-0.098-0.12-0.144-0.179c-0.201,0.073-0.384,0.133-0.563,0.206c-0.445,0.183-0.99-0.249-0.92-0.86
		c0.027-0.238,0.147-0.432,0.342-0.576c0.062-0.043,0.132-0.082,0.182-0.139c0.07-0.084,0.014-0.209-0.095-0.213
		c-0.077-0.003-0.153,0.012-0.228,0.027c-0.474,0.104-0.901-0.264-0.986-0.693c-0.084-0.436,0.182-0.898,0.622-1.02
		c0.163-0.045,0.339-0.039,0.555-0.061c-0.035-0.061-0.054-0.129-0.099-0.163c-0.127-0.1-0.275-0.174-0.398-0.28
		c-0.472-0.412-0.32-1.202,0.238-1.534c0.213-0.126,0.442-0.105,0.664-0.013c0.117,0.049,0.231,0.1,0.424,0.184
		c-0.076-0.139-0.107-0.213-0.154-0.275c-0.18-0.239-0.202-0.494-0.102-0.773c0.086-0.234,0.227-0.426,0.42-0.574
		c0.346-0.268,0.771-0.222,1.092,0.107c0.089,0.092,0.167,0.194,0.248,0.291c0.031-0.002,0.061-0.006,0.091-0.009
		c-0.041-0.349-0.055-0.688,0.241-0.933c0.236-0.199,0.521-0.277,0.818-0.291c0.533-0.027,0.869,0.31,1.047,1.045
		c0.063-0.062,0.119-0.102,0.154-0.156c0.232-0.361,0.563-0.463,0.967-0.375c0.402,0.089,0.777,0.438,0.818,0.8
		c0.016,0.143-0.045,0.294-0.082,0.438c-0.023,0.088-0.034,0.085,0.059,0.201c0.51-0.321,1.021-0.231,1.371,0.243
		c0.322,0.437,0.221,0.842-0.346,1.325c0.021,0.064,0.045,0.133,0.066,0.194C20.199,15.461,20.373,15.477,20.54,15.523"/>
	<path clip-path="url(#SVGID_2_)" fill="#B4A168" d="M21.062,22.672c0.028,0.539-0.25,0.949-0.641,1.268
		c-0.337,0.271-0.755,0.412-1.194,0.375c-0.628-0.056-1.197-0.588-1.315-1.204c-0.043-0.214-0.053-0.434-0.077-0.651
		c0.01-0.406,0.055-0.457,0.441-0.566c0.464-0.131,0.924-0.283,1.318-0.566c0.364-0.26,0.688-0.145,0.958,0.135
		C20.881,21.801,21.039,22.211,21.062,22.672"/>
	<path clip-path="url(#SVGID_2_)" fill="#B4A168" d="M20.984,7.577c0.113,0.511-0.07,0.907-0.507,1.048
		c-0.479,0.154-0.962-0.066-1.154-0.534c-0.139-0.335-0.124-0.687-0.078-1.033c0.021-0.146,0.038-0.274-0.068-0.394
		C18.985,6.887,18.8,7.11,18.605,7.328c-0.139,0.153-0.295,0.293-0.434,0.447c-0.191,0.216-0.441,0.273-0.71,0.254
		c-0.163-0.011-0.325-0.047-0.481-0.091c-0.464-0.137-0.652-0.551-0.464-1.003c0.138-0.327,0.366-0.58,0.702-0.69
		c0.854-0.284,1.596-0.745,2.252-1.356c0.038-0.036,0.086-0.064,0.133-0.093c0.016-0.008,0.041-0.003,0.088-0.005
		c0.031,0.067,0.078,0.139,0.098,0.218c0.125,0.516,0.359,0.979,0.631,1.431C20.639,6.801,20.891,7.148,20.984,7.577"/>
	<path clip-path="url(#SVGID_2_)" fill="#B4A168" d="M20.479,25.264c0.111,0.572,0.055,1.111-0.424,1.527
		c-0.066,0.057-0.137,0.108-0.201,0.167c-0.211,0.188-0.439,0.358-0.646,0.548l-0.637-0.635c0.192-0.498,0.379-0.996,0.576-1.49
		c0.103-0.255,0.297-0.418,0.562-0.508C20.017,24.77,20.416,24.941,20.479,25.264"/>
	<path clip-path="url(#SVGID_2_)" fill="#B4A168" d="M20.098,3.958L20.054,4.09c-0.319-0.031-0.565,0.074-0.813,0.201
		c-0.386,0.199-0.766,0.449-1.18,0.554c-0.529,0.134-1.009,0.342-1.469,0.619c-0.102,0.06-0.201,0.121-0.287,0.174
		c-0.28-0.191-0.525-0.402-0.807-0.54c-0.684-0.336-1.385-0.639-2.082-0.953c-0.119-0.053-0.244-0.099-0.346-0.138l-0.046-0.22
		V3.785c0.497-0.111,1.001-0.189,1.515-0.244c0.928-0.1,1.85-0.068,2.777-0.064c0.879,0.004,1.74,0.138,2.565,0.409
		C19.954,3.909,20.025,3.934,20.098,3.958"/>
	<path clip-path="url(#SVGID_2_)" fill="#B4A168" d="M18.57,26.871l0.637,0.635c-0.208,0.191-0.396,0.402-0.526,0.672
		c-0.399-0.234-0.77-0.455-1.141-0.674c-0.216-0.125-0.429-0.26-0.653-0.372c-0.408-0.205-0.688-0.529-0.887-0.93
		c-0.131-0.263-0.086-0.483,0.131-0.675c0.041-0.035,0.086-0.066,0.133-0.096c0.498-0.302,1.466-0.125,1.816,0.344
		c0.123,0.164,0.236,0.34,0.319,0.527C18.481,26.489,18.52,26.694,18.57,26.871"/>
	<path clip-path="url(#SVGID_2_)" fill="#B4A168" d="M18.689,29.057l0.025,0.145c-0.062,0.012-0.123,0.022-0.186,0.033
		c-0.953,0.159-1.899,0.271-2.862,0.275c-0.958,0.004-1.893-0.167-2.819-0.367c-0.232-0.051-0.465-0.109-0.695-0.176l0.08-0.275
		c0.012,0.026,0.021,0.054,0.031,0.081c0.562-0.124,1.105-0.232,1.642-0.364c0.63-0.158,1.242-0.359,1.616-0.957
		c0.008-0.014,0.037-0.014,0.062-0.021c0.023,0.035,0.049,0.07,0.072,0.105c0.384,0.596,0.888,0.983,1.634,0.961
		c0.337-0.011,0.646,0.086,0.931,0.268C18.385,28.867,18.551,28.97,18.689,29.057"/>
	<path clip-path="url(#SVGID_2_)" fill="#B4A168" d="M17.828,9.551c0.145,0.332,0.182,0.674,0.066,1.021
		c-0.094,0.275-0.249,0.473-0.583,0.479c-0.391,0.008-0.781,0.049-1.173,0.074c0-0.008,0-0.016,0-0.023
		c-0.264,0-0.523-0.006-0.785,0.002c-0.184,0.006-0.307-0.074-0.406-0.222c-0.317-0.47-0.322-1.388,0.023-1.834
		c0.25-0.321,0.617-0.482,1.008-0.557C16.83,8.33,17.499,8.797,17.828,9.551"/>
	<path clip-path="url(#SVGID_2_)" fill="#B4A168" d="M17.387,22.517c0.064,0.204,0.107,0.415,0.16,0.622
		c-0.04,0.752-0.355,1.312-1.018,1.65c-0.276,0.143-0.577,0.195-0.887,0.103c-0.209-0.062-0.422-0.113-0.625-0.188
		c-0.579-0.216-0.883-0.854-0.74-1.457c0.1-0.424,0.37-0.707,0.685-0.965c0.067-0.055,0.179-0.08,0.269-0.08
		c0.195,0,0.391,0.031,0.586,0.037c0.371,0.008,0.741,0.019,1.111,0.005C17.152,22.236,17.318,22.295,17.387,22.517"/>
	<path clip-path="url(#SVGID_2_)" fill="#B4A168" d="M15.74,6.789c0.215,0.413,0.045,0.914-0.388,1.088
		c-0.415,0.168-0.778,0.137-1.144-0.208c-0.363-0.342-0.656-0.732-0.756-1.236c-0.008-0.041-0.029-0.078-0.069-0.179L12.32,6.176
		c0.293-0.403,0.509-0.851,0.682-1.324c0.018-0.05,0.043-0.1,0.064-0.149c0.004-0.008,0.017-0.012,0.047-0.034
		c0.553,0.522,1.198,0.886,1.825,1.276C15.281,6.159,15.555,6.431,15.74,6.789"/>
	<path clip-path="url(#SVGID_2_)" fill="#B4A168" d="M14.902,25.327c0.363-0.046,0.567,0.124,0.563,0.491
		c-0.004,0.326-0.106,0.631-0.358,0.853c-0.227,0.202-0.461,0.407-0.724,0.558c-0.501,0.287-1.024,0.537-1.54,0.799
		c-0.057,0.029-0.12,0.045-0.165,0.062c-0.028-0.018-0.042-0.021-0.046-0.028c-0.19-0.354-0.385-0.705-0.573-1.059l0.948-0.008
		c0.102-0.188,0.198-0.377,0.304-0.56c0.291-0.509,0.663-0.923,1.267-1.059C14.685,25.352,14.794,25.34,14.902,25.327"/>
	<path clip-path="url(#SVGID_2_)" fill="#B4A168" d="M14.089,9.772c0.29,0.392,0.501,0.821,0.346,1.339
		c-0.048,0.158-0.129,0.25-0.288,0.316c-0.372,0.15-0.73,0.338-1.098,0.5c-0.125,0.055-0.264,0.078-0.396,0.116
		c-0.703-0.072-1.343-0.589-1.281-1.432c0.064-0.889,1.021-1.582,1.895-1.396C13.616,9.29,13.887,9.5,14.089,9.772"/>
	<path clip-path="url(#SVGID_2_)" fill="#B4A168" d="M13.791,21.696c0.418,0.256,0.505,0.466,0.365,0.922
		c-0.189,0.62-0.555,1.043-1.24,1.138c-0.384,0.053-0.689-0.086-0.951-0.332c-0.323-0.305-0.555-0.67-0.563-1.197
		c-0.026-0.213,0.099-0.43,0.251-0.633c0.078-0.104,0.167-0.202,0.267-0.284c0.554-0.456,0.673-0.448,1.237-0.015
		C13.355,21.446,13.578,21.564,13.791,21.696"/>
	<path clip-path="url(#SVGID_2_)" fill="#B4A168" d="M12.32,6.176l1.063,0.078c-0.028,0.112-0.06,0.168-0.052,0.217
		c0.066,0.451,0.01,0.893-0.103,1.328c-0.045,0.178-0.118,0.354-0.21,0.512c-0.242,0.421-0.91,0.566-1.295,0.273
		c-0.113-0.084-0.189-0.239-0.242-0.375c-0.16-0.405-0.094-0.794,0.139-1.153c0.113-0.172,0.242-0.339,0.381-0.489
		C12.119,6.441,12.224,6.312,12.32,6.176"/>
	<path clip-path="url(#SVGID_2_)" fill="#B4A168" d="M12.85,24.826c0.232,0.396,0.347,0.823,0.268,1.285
		c-0.049,0.286-0.106,0.572-0.109,0.883l-0.948,0.008c-0.112-0.213-0.223-0.427-0.329-0.643c-0.111-0.23-0.181-0.49-0.221-0.746
		c-0.066-0.414,0.291-0.924,0.69-1.033C12.486,24.502,12.695,24.565,12.85,24.826"/>
	<path clip-path="url(#SVGID_2_)" fill="#B4A168" d="M13.024,3.786l0.046,0.22c-0.015-0.005-0.028-0.011-0.042-0.017
		c-0.435,0.44-0.854,0.851-1.259,1.279c-0.359,0.38-0.721,0.763-0.939,1.252c-0.053,0.118-0.107,0.234-0.162,0.354
		c-0.264,0-0.52-0.034-0.763,0.007C9.39,6.967,8.881,7.088,8.368,7.196C7.934,7.29,7.503,7.44,7.048,7.31
		C7.04,7.307,7.03,7.306,7.021,7.306L6.783,7.154C7.1,6.84,7.438,6.547,7.801,6.282c1.033-0.756,2.149-1.376,3.328-1.886
		C11.746,4.128,12.378,3.93,13.024,3.786"/>
	<path clip-path="url(#SVGID_2_)" fill="#B4A168" d="M12.232,28.691l-0.08,0.275c-0.564-0.16-1.117-0.363-1.658-0.598
		c-1.133-0.49-2.146-1.164-3.057-1.996c-0.296-0.27-0.594-0.536-0.884-0.812l0.157-0.164c0.755,0.052,0.755,0.053,1.448,0.525
		c0.222,0.15,0.462,0.248,0.739,0.211c0.42-0.057,0.85-0.021,1.257-0.18c0.116-0.045,0.253-0.038,0.397-0.059
		c0.018,0.093,0.033,0.166,0.044,0.237c0.093,0.608,0.336,1.136,0.771,1.587C11.678,28.039,12.063,28.3,12.232,28.691"/>
	<path clip-path="url(#SVGID_2_)" fill="#B4A168" d="M11.933,20.09c0.182,0.308,0.179,0.567-0.036,0.845
		c-0.238,0.31-0.523,0.544-0.904,0.671c-0.359,0.119-0.693,0.094-0.997-0.115c-0.427-0.294-0.8-0.645-0.963-1.16
		c-0.042-0.134-0.065-0.275-0.097-0.412c0.01-0.613,0.293-1.052,0.838-1.301c0.256-0.115,0.539-0.171,0.812-0.24
		c0.244-0.06,0.424,0.035,0.529,0.266c0.014,0.031,0.027,0.061,0.043,0.09C11.416,19.185,11.669,19.641,11.933,20.09"/>
	<path clip-path="url(#SVGID_2_)" fill="#B4A168" d="M11.678,12.055c0.278,0.324,0.305,0.648,0.1,1.025
		c-0.215,0.393-0.439,0.779-0.621,1.188c-0.146,0.33-0.383,0.453-0.593,0.448c-0.869,0.003-1.586-0.604-1.665-1.3
		c-0.003-0.033-0.014-0.066-0.01-0.1c0.092-0.945,0.584-1.678,1.646-1.728C10.96,11.568,11.377,11.703,11.678,12.055"/>
	<path clip-path="url(#SVGID_2_)" fill="#B4A168" d="M10.99,23.53c0.274,0.237,0.352,0.558,0.302,0.886
		c-0.054,0.345-0.332,0.536-0.651,0.623c-0.186,0.05-0.391,0.062-0.582,0.042c-0.402-0.042-0.799-0.133-1.199-0.171
		c-0.391-0.035-0.784-0.039-1.176-0.041c-0.308-0.003-0.347-0.031-0.299-0.336c0.04-0.257,0.053-0.512,0.051-0.768l0.821-0.014
		c0.016,0.016,0.029,0.033,0.044,0.051c0.059-0.041,0.124-0.076,0.178-0.123c0.291-0.255,0.62-0.441,0.968-0.605
		c0.295-0.137,0.594-0.155,0.893-0.066c0.139,0.041,0.262,0.148,0.377,0.243C10.816,23.332,10.892,23.445,10.99,23.53"/>
	<path clip-path="url(#SVGID_2_)" fill="#B4A168" d="M11.281,8.629c0.004,0.272,0.008,0.551-0.045,0.814
		c-0.049,0.239-0.264,0.346-0.496,0.359c-0.359,0.021-0.719,0.012-1.037-0.208c-0.322-0.223-0.65-0.437-0.979-0.651
		C8.682,8.914,8.633,8.891,8.587,8.866L7.731,8.863c0-0.117,0-0.236-0.001-0.354C7.729,8.292,7.677,8.076,7.646,7.842
		C7.674,7.835,7.716,7.811,7.75,7.819c0.722,0.164,1.451,0.172,2.181,0.081c0.5-0.063,0.9,0.107,1.228,0.475
		C11.219,8.442,11.281,8.543,11.281,8.629"/>
	<path clip-path="url(#SVGID_2_)" fill="#B4A168" d="M10.447,15.117c0.234,0.133,0.263,0.215,0.23,0.48
		c-0.045,0.399-0.08,0.801-0.108,1.201c-0.009,0.115-0.005,0.248,0.042,0.353c0.139,0.305-0.032,0.522-0.18,0.747
		c-0.149,0.229-0.361,0.343-0.633,0.344H9.604c-0.861,0.039-1.399-0.535-1.529-1.344C7.947,16.1,8.34,15.355,9.062,15.057
		C9.525,14.865,9.996,14.865,10.447,15.117"/>
	<path clip-path="url(#SVGID_2_)" fill="#B4A168" d="M9.453,10.459c0.082,0.463-0.035,0.859-0.438,1.154
		c-0.385,0.281-1.176,0.131-1.277-0.516c-0.025-0.162-0.023-0.326-0.023-0.49c0.003-0.582,0.015-1.163,0.017-1.744l0.855,0.003
		c0.018,0.243,0.147,0.399,0.294,0.546C9.174,9.704,9.382,10.052,9.453,10.459"/>
	<path clip-path="url(#SVGID_2_)" fill="#B4A168" d="M8.707,21.129c0.342,0.304,0.51,0.77,0.348,1.243
		c-0.152,0.442-0.434,0.804-0.678,1.19c-0.039,0.063-0.08,0.126-0.121,0.189l-0.821,0.014c-0.001-0.311-0.027-0.621-0.056-0.932
		c-0.027-0.283-0.036-0.567-0.051-0.85c-0.018-0.332,0.151-0.572,0.41-0.736c0.172-0.107,0.377-0.167,0.574-0.227
		C8.455,20.977,8.594,21.029,8.707,21.129"/>
	<path clip-path="url(#SVGID_2_)" fill="#B4A168" d="M8.299,12.269c0.162,0.206,0.158,0.422,0.015,0.663
		c-0.409,0.693-1.082,0.883-1.731,0.738c-0.209-0.047-0.426-0.051-0.641-0.074c-0.011,0.021-0.022,0.043-0.033,0.064
		c0.015,0.012,0.03,0.024,0.043,0.037l-0.948,0.188c-0.145-0.191-0.301-0.374-0.462-0.555c-0.051-0.058-0.101-0.114-0.2-0.224
		c0.105-0.059,0.171-0.117,0.245-0.134c0.562-0.132,1.058-0.397,1.537-0.704c0.403-0.257,0.848-0.395,1.327-0.416
		C7.807,11.84,8.086,11.998,8.299,12.269"/>
	<path clip-path="url(#SVGID_2_)" fill="#B4A168" d="M7.76,19.202c0.288,0.16,0.408,0.41,0.35,0.711
		c-0.075,0.386-0.257,0.728-0.668,0.862c-0.13,0.041-0.282,0.063-0.414,0.041c-0.359-0.064-0.7-0.191-0.955-0.469
		c-0.385-0.415-0.861-0.66-1.411-0.771c-0.061-0.013-0.122-0.029-0.236-0.055c0.145-0.154,0.262-0.314,0.364-0.482l1.112,0.004
		c0.003,0.031,0.007,0.061,0.011,0.091c0.3-0.022,0.6-0.032,0.896-0.071C7.143,19.02,7.457,19.033,7.76,19.202"/>
	<path clip-path="url(#SVGID_2_)" fill="#B4A168" d="M7.484,17.244c0.06,0.631-0.294,1.216-0.879,1.465
		c-0.239,0.102-0.47,0.223-0.704,0.334L4.79,19.039c0.169-0.277,0.29-0.57,0.4-0.871c0.127-0.347,0.283-0.684,0.425-1.023
		c0.185-0.439,0.566-0.59,0.991-0.646C6.953,16.449,7.45,16.891,7.484,17.244"/>
	<path clip-path="url(#SVGID_2_)" fill="#B4A168" d="M7.539,15.454c0,0.306-0.113,0.472-0.396,0.552
		c-0.508,0.145-0.955-0.014-1.246-0.46c-0.125-0.19-0.238-0.396-0.312-0.61c-0.135-0.391-0.342-0.73-0.581-1.05l0.948-0.188
		c0.043,0.038,0.086,0.078,0.135,0.102c0.296,0.137,0.594,0.273,0.895,0.4c0.148,0.064,0.249,0.165,0.317,0.312
		C7.439,14.811,7.538,15.117,7.539,15.454"/>
	<path clip-path="url(#SVGID_2_)" fill="#B4A168" d="M6.783,7.154l0.238,0.152c-0.037,0-0.074,0.018-0.083,0.019
		c0,0.286,0.027,0.548-0.007,0.804c-0.04,0.292-0.13,0.574-0.204,0.86C6.651,9.285,6.544,9.574,6.492,9.873
		c-0.074,0.432-0.06,0.865,0.115,1.262c-0.283,0.121-0.558,0.206-0.796,0.352c-0.551,0.334-1.082,0.697-1.624,1.049
		c-0.142,0.093-0.284,0.186-0.418,0.273l-0.307-0.047c0.158-0.582,0.374-1.146,0.673-1.686c0.407-0.734,0.776-1.496,1.241-2.192
		C5.791,8.263,6.257,7.678,6.783,7.154"/>
	<path clip-path="url(#SVGID_2_)" fill="#B4A168" d="M6.711,25.396l-0.157,0.164c-0.067-0.062-0.131-0.125-0.197-0.189
		c-0.186-0.182-0.351-0.391-0.503-0.602c-0.795-1.116-1.488-2.284-1.959-3.584c-0.197-0.541-0.369-1.085-0.504-1.637l0.242-0.061
		c0.042,0.038,0.073,0.068,0.107,0.094c0.36,0.272,0.678,0.578,0.922,0.966c0.098,0.157,0.27,0.296,0.441,0.373
		c0.317,0.142,0.656,0.229,0.985,0.345c0.109,0.037,0.214,0.085,0.318,0.127c-0.007,0.079-0.004,0.125-0.014,0.166
		c-0.162,0.719-0.127,1.428,0.071,2.137c0.078,0.282,0.092,0.581,0.133,0.873C6.636,24.846,6.674,25.125,6.711,25.396"/>
	<path clip-path="url(#SVGID_2_)" fill="#B4A168" d="M4.616,15.491c0.154,0.273,0.323,0.542,0.492,0.825
		c-0.524,0.475-0.713,1.102-0.861,1.744c-0.117,0.512-0.285,1.001-0.615,1.428l-0.241,0.061c-0.193-0.777-0.313-1.569-0.327-2.384
		c-0.001-0.143-0.021-0.284-0.025-0.427c-0.004-0.13-0.001-0.262-0.001-0.393c-0.005,0-0.011-0.002-0.016-0.002
		c0.036-0.6,0.046-1.201,0.113-1.799c0.068-0.604,0.168-1.203,0.327-1.783l0.308,0.047c0.115,0.357,0.243,0.726,0.348,1.1
		c0.104,0.365,0.173,0.742,0.278,1.109C4.443,15.182,4.53,15.34,4.616,15.491"/>
</g>
</svg>
