<?xml version="1.0" encoding="utf-8"?>
<!-- Generator: Adobe Illustrator 16.0.0, SVG Export Plug-In . SVG Version: 6.00 Build 0)  -->
<!DOCTYPE svg PUBLIC "-//W3C//DTD SVG 1.1//EN" "http://www.w3.org/Graphics/SVG/1.1/DTD/svg11.dtd">
<svg version="1.1" id="Layer_1" xmlns="http://www.w3.org/2000/svg" xmlns:xlink="http://www.w3.org/1999/xlink" x="0px" y="0px"
	 width="705.195px" height="877.272px" viewBox="0 0 705.195 877.272" enable-background="new 0 0 705.195 877.272"
	 xml:space="preserve">
<rect x="0.273" y="0.024" fill="#000100" width="705.827" height="877.144"/>
<g>
	<defs>
		<rect id="SVGID_1_" x="0.273" y="0.023" width="705.827" height="877.145"/>
	</defs>
	<clipPath id="SVGID_2_">
		<use xlink:href="#SVGID_1_"  overflow="visible"/>
	</clipPath>
	<path clip-path="url(#SVGID_2_)" fill="#FFFFFF" d="M484.521,668.175l34.083-105.783c1.135-2.9,2.209-4.353,3.22-4.353
		c1.136,0,2.017,1.452,2.649,4.353l36.925,105.783c0,1.769-0.567,2.649-1.703,2.649h-74.039
		C484.899,670.825,484.521,669.944,484.521,668.175 M418.527,783.042c-4.86,6.311-11.393,9.967-19.598,10.977
		c-4.29,0.505-8.078,0.757-11.36,0.757c-2.271,0-3.408,0.822-3.408,2.46c0,2.016,2.463,3.027,7.386,3.027
		c4.542,0,9.559-0.095,15.053-0.283c5.491-0.189,10.257-0.35,14.296-0.474c4.039-0.127,6.911-0.222,8.614-0.283
		c1.703-0.065,3.631-0.096,5.777-0.096c2.02,0,3.788,0.03,5.302,0.096c1.514,0.062,3.726,0.156,6.629,0.283
		c2.904,0.124,6.091,0.284,9.562,0.474c3.472,0.188,6.404,0.283,8.806,0.283c3.912,0,5.869-1.012,5.869-3.027
		c0-1.638-1.327-2.46-3.978-2.46h-3.787c-3.661,0-7.038-0.977-10.13-2.934c-3.093-1.955-4.64-4.698-4.64-8.231
		c0-7.57,1.766-16.337,5.302-26.304l23.291-69.45c0.757-2.018,2.081-3.028,3.977-3.028h83.317c1.514,0,2.715,0.757,3.599,2.271
		l35.979,96.511c0.502,1.262,0.757,2.838,0.757,4.73c0,3.282-1.012,5.175-3.031,5.678c-1.893,0.378-2.839,1.323-2.839,2.838
		c0,1.012,0.977,1.641,2.934,1.893c1.958,0.254,4.891,0.502,8.806,0.757c17.8,0.502,38.06,0.757,60.784,0.757
		c5.174,0,7.764-1.012,7.764-3.027c0-1.638-1.262-2.46-3.787-2.46c-5.684,0-10.857-0.757-15.526-2.271
		c-5.43-1.514-10.795-5.266-16.098-11.26c-5.301-5.99-11.044-16.682-17.229-32.075c-6.187-15.769-14.017-36.018-23.483-60.746
		c-9.468-24.725-17.359-45.352-23.67-61.88c-6.312-16.525-14.267-37.403-23.858-62.638c-9.596-25.23-16.032-42.135-19.314-50.715
		c-1.895-5.172-3.474-8.862-4.734-11.071c-1.262-2.206-2.524-3.311-3.787-3.311c-2.146,0-5.05,5.174-8.711,15.517L431.5,757.307
		C427.711,768.158,423.388,776.736,418.527,783.042"/>
	<path clip-path="url(#SVGID_2_)" fill="#C0AB6A" d="M379.665,392.958c-2.05-2.313-3.675-5.094-4.873-8.34
		c-2.777-7.504-4.731-16.305-5.867-26.398L343,117.887c-0.758-7.191-2.336-10.786-4.731-10.786c-2.02,0-3.912,2.081-5.677,6.245
		L218.67,359.354L100.018,112.967c-1.641-3.909-3.595-5.866-5.866-5.866c-2.02,0-3.406,2.46-4.163,7.38L61.982,369.384
		c-1.136,10.597-2.588,18.421-4.353,23.465c-1.768,5.047-5.488,8.075-11.165,9.083c-3.785,0.757-7.635,1.137-11.543,1.137
		c-2.65,0-3.974,0.694-3.974,2.082c0,2.27,2.205,3.405,6.623,3.405c2.773,0,6.118-0.095,10.029-0.284
		c3.909-0.189,7.443-0.349,10.598-0.473c3.152-0.127,5.488-0.223,7.002-0.284c1.513-0.065,3.152-0.095,4.92-0.095
		c1.765,0,3.373,0.029,4.825,0.095c1.449,0.062,3.909,0.157,7.381,0.284c3.468,0.124,7.409,0.251,11.827,0.378
		c4.414,0.125,8.45,0.252,12.111,0.379c4.666,0,7.002-1.136,7.002-3.405c0-1.388-1.074-2.082-3.217-2.082
		c-4.291,0-9.211-0.631-14.761-1.893c-2.776-0.503-5.142-1.955-7.096-4.354c-1.958-2.395-2.933-4.92-2.933-7.568
		c0-9.335,0.124-16.086,0.378-20.249l15.518-181.668h1.514c2.016,4.669,6.179,13.909,12.489,27.724
		c6.307,13.814,13.72,29.994,22.236,48.539c8.515,18.545,14.033,30.343,16.558,35.387c0.757,1.263,3.657,7.067,8.705,17.41
		c5.044,10.346,8.923,18.262,11.638,23.75c2.711,5.487,6.623,13.342,11.733,23.561c5.109,10.218,9.491,18.988,13.152,26.304
		c4.541,8.453,7.347,13.53,8.421,15.233c1.07,1.703,2.3,2.555,3.69,2.555c1.514,0,2.963-1.23,4.352-3.689
		c1.387-2.461,4.163-8.232,8.327-17.315l94.997-203.431h1.135l18.735,201.917c0,9.338-0.568,14.131-1.703,14.383
		c-1.77,0.377-2.65,1.262-2.65,2.648c0,2.02,3.597,3.344,10.787,3.975c3.2,0.229,7.404,0.457,12.612,0.687"/>
	<path clip-path="url(#SVGID_2_)" fill="#FFFFFF" d="M440.552,694.736c13.183-1.515,23.495-3.724,30.94-6.623
		c3.658-1.767,5.991-3.247,7.002-4.447c1.008-1.198,2.082-3.501,3.217-6.908c1.515-5.298,3.312-14.411,5.394-27.344
		c2.082-12.931,3.123-20.595,3.123-22.993c0-3.909-0.946-5.866-2.84-5.866c-1.768,0-3.027,1.957-3.784,5.866
		c-0.757,5.048-2.431,10.853-5.015,17.41c-2.588,6.562-5.71,11.733-9.368,15.519c-7.19,7.444-16.273,12.615-27.25,15.517
		c-10.975,2.904-24.349,4.353-40.117,4.353c-19.936,0-38.542-3.847-55.825-11.544c-17.286-7.693-32.235-18.261-44.849-31.696
		c-12.617-13.437-22.33-28.889-29.143-46.363c-6.812-17.472-10.219-35.417-10.219-53.838c0-21.952,2.523-41.284,7.57-58.002
		c5.044-16.716,14.193-31.509,27.439-44.376c19.302-18.797,49.013-28.196,89.131-28.196c10.721,0,20.005,0.567,31.319,2.933
		c10.153,1.957,19.142,4.607,26.966,7.948c7.821,3.345,14.193,7.034,19.113,11.07c5.172,4.164,9.178,9.905,12.017,17.221
		c2.838,7.318,4.258,14.888,4.258,22.708c0,5.678,1.07,8.516,3.217,8.516c1.893,0,3.027-2.838,3.406-8.516
		c0.251-3.783,0.44-10.47,0.568-20.059c0.124-9.586,0.312-16.336,0.566-20.248c0.252-4.287,0.946-11.479,2.082-21.573
		c0-2.649-1.702-4.099-5.109-4.353c-10.094-0.629-23.276-2.711-39.55-6.244c-16.78-3.028-35.516-4.543-56.204-4.543
		c-18.799,0-35.736,1.799-50.811,5.394c-15.077,3.597-28.04,8.517-38.888,14.761c-10.852,6.245-20.376,13.469-28.575,21.668
		c-15.393,15.645-26.464,33.306-33.211,52.986c-6.751,19.68-10.124,37.658-10.124,53.932c0,48.824,15.641,87.493,46.931,116.004
		c10.343,9.338,21.729,17.126,34.157,23.37c12.424,6.245,26.304,10.946,41.632,14.099c15.328,3.151,32.706,4.73,52.136,4.73
		C414.467,697.006,427.368,696.25,440.552,694.736"/>
	<path clip-path="url(#SVGID_2_)" fill="#C0AB6A" d="M625.495,281.208c1.444-7.007,2.524-13.986,2.241-21.154
		c-0.162-4.428-0.082-8.857-0.014-13.285c0.107-7.343-0.054-14.66-1.998-21.815c-1.606-5.927-2.673-12.015-4.684-17.781
		c-3.633-10.354-8.183-20.304-14.216-29.592c-4.227-6.506-8.763-12.716-13.959-18.454c-3.174-3.496-6.562-6.804-10.018-10.043
		c-2.97-2.782-6.008-5.522-9.274-7.938c-3.687-2.741-7.547-5.266-11.517-7.602c-5.291-3.105-10.624-6.196-16.172-8.788
		c-6.615-3.091-13.474-5.777-20.641-7.384c-6.818-1.525-13.663-3.146-20.588-3.955c-5.441-0.649-11.003-0.136-14.108-0.136
		c-11.678-0.108-20.884-0.175-30.05,1.999c-9.465,2.226-18.753,4.859-27.675,8.707c-8.426,3.631-16.376,8.086-23.909,13.324
		c-5.373,3.753-10.503,7.777-15.311,12.258c-6.465,6.021-12.311,12.528-17.643,19.562c-5.414,7.154-10.045,14.809-13.852,22.869
		c-4.833,10.233-8.56,20.925-10.598,32.102c-0.823,4.55-1.917,9.127-2.065,13.703c-0.323,9.721-0.122,19.441-0.081,29.16
		c0,1.607,0.12,3.24,0.404,4.82c1.851,10.058,3.849,20.088,7.601,29.646c1.621,4.117,3.12,8.303,5.117,12.231
		c2.43,4.78,5.224,9.382,8.087,13.932c2.457,3.902,5.035,7.762,7.896,11.381c2.983,3.766,6.427,7.181,9.599,10.8
		c4.55,5.209,9.896,9.557,15.282,13.81c3.591,2.849,7.561,5.237,11.501,7.601c4.901,2.93,9.788,5.953,14.945,8.344
		c9.613,4.414,19.643,7.64,30.025,9.867c7.532,1.62,15.065,2.457,22.76,2.241c6.48-0.175,12.961,0,19.439-0.054
		c2.039-0.028,4.104-0.137,6.116-0.5c11.231-2.025,22.302-4.616,32.967-8.924c8.856-3.563,17.198-8.059,25.123-13.202
		c6.266-4.063,12.138-8.789,17.591-14.015c4.954-4.776,9.774-9.65,13.973-15.091c3.348-4.321,6.48-8.843,9.41-13.459
		c2.82-4.442,5.615-8.951,7.802-13.717C619.635,302.592,623.241,292.13,625.495,281.208 M635.254,252.952
		c0.379,81.649-66.73,148.285-148.729,147.555c-81.107-0.728-147.082-67.5-146.084-149.282
		c0.986-80.987,67.758-146.691,149.433-145.598C570.32,106.693,635.511,172.547,635.254,252.952"/>
	<path clip-path="url(#SVGID_2_)" fill="#010101" d="M611.104,284.098c3.266-12.15,5.116-24.421,4.333-37.017
		c-0.352-5.588-0.688-11.179-1.067-16.767c-0.134-2.053-0.553-4.037-1.079-5.981c-0.932-3.443-2.241-6.79-3.092-10.247
		c-2.282-9.22-6.316-17.643-11.057-25.717c-4.13-7.046-8.855-13.621-14.134-19.791c-3.173-3.685-6.548-7.235-10.125-10.625
		c-7.034-6.681-14.876-12.096-23.071-17.05c-4.199-2.551-8.897-4.293-13.379-6.372c-3.901-1.809-7.871-3.401-11.906-4.725
		c-7.264-2.403-14.743-3.942-22.491-4.374c-7.425-0.405-14.891-0.459-22.315-0.243c-5.374,0.149-10.733,0.851-16.066,1.539
		c-3.05,0.391-6.047,0.945-9.017,1.633c-6.021,1.419-11.88,3.416-17.646,5.859c-11.394,4.82-21.992,11.016-32.13,17.982
		c-3.86,2.66-7.275,5.792-10.476,9.141c-3.199,3.347-6.209,6.897-9.262,10.394c-6.021,6.899-10.138,15.012-14.418,22.99
		c-2.658,4.983-5.427,9.924-6.952,15.525c-0.514,1.904-1.013,3.821-1.472,5.738c-1.688,6.912-3.01,13.892-3.713,20.979
		c-0.565,5.779-0.634,11.611-0.93,17.416c-0.069,6.925,0.404,13.783,1.768,20.573c0.566,2.794,1.107,5.603,1.85,8.357
		c0.148,0.553,0.297,1.12,0.472,1.674c1.85,6.047,3.97,12.014,5.954,18.022c1.715,5.225,3.753,10.3,6.778,14.904
		c3.32,5.036,6.763,9.991,10.125,14.999c2.037,3.024,4.251,5.9,6.734,8.546c0.837,0.876,1.702,1.741,2.593,2.564
		c1.891,1.756,3.82,3.483,5.71,5.265c12.097,11.448,26.191,19.493,41.999,24.664c1.931,0.636,3.86,1.216,5.806,1.756
		c7.371,2.093,14.891,3.563,22.504,4.36c6.737,0.716,13.566,0.836,20.345,0.595c6.655-0.244,13.217-1.647,19.818-2.634
		c0.701-0.107,1.403-0.215,2.104-0.351c10.49-1.877,20.143-5.872,29.525-10.61c10.679-5.4,20.52-12.272,29.241-20.493
		c1.296-1.215,2.565-2.444,3.82-3.699c4.01-3.996,7.816-8.208,11.367-12.596c6.169-7.613,10.691-16.349,15.215-25.016
		c2.105-4.035,3.767-8.234,5.17-12.527C609.483,289.889,610.32,287.014,611.104,284.098 M627.736,260.054
		c0.283,7.168-0.796,14.147-2.241,21.154c-2.255,10.922-5.858,21.384-10.491,31.468c-2.185,4.766-4.979,9.275-7.802,13.716
		c-2.929,4.617-6.061,9.139-9.41,13.46c-4.197,5.44-9.018,10.314-13.972,15.091c-5.454,5.226-11.326,9.951-17.591,14.015
		c-7.925,5.144-16.267,9.64-25.122,13.202c-10.666,4.307-21.736,6.898-32.967,8.924c-2.012,0.363-4.078,0.473-6.116,0.5
		c-6.479,0.055-12.96-0.121-19.441,0.055c-7.693,0.215-15.227-0.621-22.76-2.242c-10.382-2.228-20.412-5.453-30.023-9.867
		c-5.158-2.391-10.045-5.416-14.945-8.344c-3.942-2.363-7.91-4.752-11.502-7.601c-5.386-4.253-10.732-8.601-15.282-13.81
		c-3.172-3.619-6.615-7.034-9.599-10.8c-2.861-3.619-5.439-7.479-7.897-11.382c-2.861-4.549-5.657-9.152-8.087-13.931
		c-1.997-3.928-3.496-8.114-5.116-12.231c-3.752-9.559-5.751-19.589-7.601-29.646c-0.283-1.58-0.404-3.213-0.404-4.82
		c-0.041-9.719-0.243-19.439,0.08-29.16c0.149-4.576,1.243-9.153,2.066-13.703c2.038-11.177,5.765-21.869,10.598-32.102
		c3.806-8.06,8.438-15.715,13.852-22.869c5.333-7.034,11.178-13.541,17.643-19.562c4.807-4.481,9.937-8.505,15.311-12.258
		c7.533-5.238,15.484-9.693,23.908-13.324c8.923-3.848,18.211-6.481,27.675-8.707c9.167-2.174,18.373-2.107,30.052-1.999
		c3.104,0,8.667-0.513,14.107,0.136c6.925,0.809,13.771,2.429,20.587,3.955c7.168,1.607,14.026,4.292,20.643,7.384
		c5.547,2.592,10.88,5.683,16.172,8.788c3.97,2.336,7.83,4.861,11.516,7.602c3.268,2.416,6.305,5.156,9.274,7.938
		c3.456,3.239,6.844,6.547,10.017,10.043c5.197,5.737,9.734,11.948,13.959,18.454c6.034,9.288,10.584,19.238,14.216,29.592
		c2.013,5.765,3.077,11.853,4.685,17.781c1.945,7.155,2.105,14.472,1.999,21.815C627.654,251.197,627.574,255.626,627.736,260.054"
		/>
	<path clip-path="url(#SVGID_2_)" fill="#C0AB6A" d="M615.437,247.081c0.783,12.596-1.067,24.867-4.333,37.017
		c-0.783,2.916-1.621,5.791-2.565,8.64l-1.228-0.419c0.323-0.621,0.283-1.283-0.055-2.457c-0.527-1.863-1.378-3.672-1.634-5.561
		c-0.526-4.011-1.702-7.777-3.186-11.503c-1.539-3.888-3.793-7.236-7.061-9.882c-0.527-0.418-0.985-0.944-1.512-1.458
		c4.764-2.889,8.41-7.114,9.854-11.488c0.81-2.443,1.525-4.914,2.2-7.398c1.445-5.306,2.795-10.638,5.71-15.417
		c0.419-0.689,0.54-1.579,0.878-2.606l0.783-0.216c0.526,1.944,0.945,3.928,1.079,5.981
		C614.749,235.902,615.085,241.493,615.437,247.081"/>
	<path clip-path="url(#SVGID_2_)" fill="#C0AB6A" d="M613.291,224.332l-0.783,0.216c-4.293-1.512-7.492-4.373-10.488-7.505
		c-1.271-1.324-2.498-2.687-3.728-4.05c-2.442-2.7-5.438-4.591-8.923-5.603c-2.336-0.688-4.752-1.121-7.128-1.66
		c0.351-0.986,0.999-2.066,1.106-3.186c0.54-6.008,1.473-12.056-0.729-17.955c-1.741-4.658-2.254-9.409-1.107-14.297
		c0.041-0.162-0.175-0.378-0.283-0.607c-0.242-0.135-0.513-0.365-0.81-0.446l4.589-0.662c5.279,6.17,10.004,12.745,14.135,19.792
		c4.739,8.073,8.774,16.496,11.058,25.717C611.049,217.542,612.359,220.89,613.291,224.332"/>
	<path clip-path="url(#SVGID_2_)" fill="#C0AB6A" d="M608.54,292.738c-1.404,4.293-3.065,8.492-5.171,12.527
		c-4.523,8.667-9.045,17.402-15.215,25.016c-3.551,4.387-7.358,8.6-11.367,12.596l-1.296-1.324
		c-1.484-4.671,0.312-8.693,2.079-12.811c0.838-1.931,1.296-4.131,1.444-6.237c0.243-3.294,0.068-6.602,0.068-9.923
		c0.701-0.148,1.12-0.243,1.524-0.323c5.062-0.904,9.153-3.281,12.73-7.102c3.834-4.063,8.236-7.6,12.474-11.259
		c0.756-0.647,1.242-1.106,1.499-1.579L608.54,292.738z"/>
	<path clip-path="url(#SVGID_2_)" fill="#C0AB6A" d="M603.975,225.98c0.298,0.04,0.594,0.216,1.378,0.5
		c-4.524,4.252-5.9,9.435-6.858,14.958c-1.431,8.207-8.829,14.93-16.997,15.956c-4.253,0.541-6.142-0.675-7.491-4.671
		c-0.595-1.728-1.271-3.429-1.958-5.13c-0.878-2.146-0.486-4.009,1.188-5.588c2.038-1.932,4.199-3.659,6.912-4.658
		c2.525-0.932,4.955-2.107,7.412-3.186c1.039-0.446,1.971-0.972,1.539-2.538c-0.526-0.364-1.08-0.487-1.634-0.487l6.831-9.004
		C597.117,224.265,600.344,225.467,603.975,225.98"/>
	<path clip-path="url(#SVGID_2_)" fill="#C0AB6A" d="M602.058,289.443c-1.281,0.487-2.038,0.85-2.848,1.053
		c-4.24,1.08-7.615,3.456-10.382,6.764c-2.35,2.78-5.292,4.67-8.613,6.115c-2.996,1.31-5.994,1.513-9.153,0.729
		c-3.226-0.81-4.913-2.768-5.035-6.129c-0.121-3.011-0.216-6.02-0.323-9.032c-0.108-2.564,1.458-4.441,4.009-4.4
		c1.565,0.026,3.132,0.607,4.712,0.863c2.633,0.446,5.265,0.932,7.925,1.175c0.647,0.054,1.754-0.567,1.97-1.134
		c0.459-1.216-0.675-1.607-1.606-1.945c-2.025-0.729-4.05-1.497-6.088-2.185c-2.038-0.69-3.118-2.094-3.551-4.186
		c-0.242-1.255-0.634-2.525-1.229-3.631c-0.729-1.364-0.891-2.593-0.175-3.983c0.54-1.04,0.999-2.146,1.391-3.267
		c2.241-6.494,11.313-6.602,14.943-2.039c1.135,1.419,2.228,2.944,2.998,4.577C594.242,275.7,597.279,282.706,602.058,289.443"/>
	<path clip-path="url(#SVGID_2_)" fill="#C0AB6A" d="M594.295,222.132l-6.831,9.004c-0.862,0-1.74,0.298-2.604,0.446
		c-3.294,0.541-6.562,1.271-9.856,1.715c-2.982,0.405-6.412-2.133-6.789-5.09c-0.46-3.496-0.743-7.033-0.891-10.556
		c-0.163-3.916,2.133-6.481,6.034-7.048c3.778-0.539,7.384,0.082,10.462,2.336c2.754,2.025,5.495,4.212,7.804,6.737
		C592.474,220.607,593.365,221.418,594.295,222.132"/>
	<path clip-path="url(#SVGID_2_)" fill="#C0AB6A" d="M585.008,168.577l-4.59,0.662c-6.439-1.742-12.865-3.591-19.346-5.171
		c-5.225-1.268-10.462-1.417-15.512,1.013c-0.824,0.391-1.795,0.486-3.011,0.783c0-1.647,0.107-3.038-0.014-4.414
		c-0.216-2.228-0.107-4.658-0.972-6.629c-1.39-3.119-3.24-6.102-5.319-8.816c-2.808-3.699-5.846-7.195-7.871-11.434
		c-0.593-1.242-1.403-2.377-2.199-3.727l0.352-1.039c4.035,1.324,8.005,2.917,11.906,4.725c4.481,2.079,9.18,3.821,13.379,6.372
		c8.195,4.954,16.037,10.369,23.071,17.05C578.46,161.342,581.835,164.892,585.008,168.577"/>
	<path clip-path="url(#SVGID_2_)" fill="#C0AB6A" d="M575.491,341.553l1.296,1.324c-1.255,1.255-2.525,2.483-3.821,3.699
		c-8.721,8.222-18.562,15.093-29.241,20.493c-9.383,4.738-19.033,8.734-29.524,10.611l-0.16-1.42
		c0.998-1.187,1.781-2.401,2.821-3.306c2.348-2.053,4.63-4.319,7.304-5.832c7.208-4.036,12.163-9.733,14.606-17.793
		c0.499,0.094,1.04,0.108,1.524,0.283c3.834,1.485,7.642,0.838,11.449-0.135c1.255-0.323,2.484-0.702,3.725-1.093
		c6.05-1.945,12.083-3.903,18.13-5.874C574.181,342.323,574.708,341.958,575.491,341.553"/>
	<path clip-path="url(#SVGID_2_)" fill="#C0AB6A" d="M575.167,193.567c0.878,5.75-0.945,10.84-5.372,14.863
		c-2.917,2.633-5.05,3.024-8.466,1.106c-1.862-1.066-3.658-2.294-5.359-3.617c-2.457-1.93-2.524-6.562-0.121-9.342
		c1.769-2.039,3.727-3.901,5.521-5.913c0.743-0.837,1.309-1.837,2.43-3.442l10.679-0.743
		C574.574,188.827,574.802,191.19,575.167,193.567"/>
	<path clip-path="url(#SVGID_2_)" fill="#C0AB6A" d="M574.87,174.747c0,0.783,0.095,1.62-0.013,2.43
		c-0.393,3.104-0.514,6.196-0.378,9.302l-10.68,0.742c-1.714,0.122-2.741-0.067-3.47,0.31c-1.876,1-3.752,2.12-5.426,3.457
		c-4.779,3.834-8.695,2.646-12.556-1.067c-1.7-1.633-3.024-3.658-4.657-5.346c-1.31-1.35-1.445-2.794-1.039-4.456
		c1.188-5.048,6.897-9.854,12.026-9.584c3.403,0.175,6.832,0.891,10.112,1.836c4.887,1.431,9.762,2.551,14.891,2.011
		C573.965,174.342,574.276,174.559,574.87,174.747"/>
	<path clip-path="url(#SVGID_2_)" fill="#C0AB6A" d="M566.877,305.914c4.51,3.968,6.63,7.938,4.59,14.634
		c-2.564,8.383-2.739,9.247-1.053,17.82c-1.147,0.175-2.269,0.446-3.402,0.5c-4.657,0.215-9.152,0.783-13.473,2.875
		c-3.645,1.768-7.466,1.876-11.028-0.703c-1.392-1.012-2.957-1.754-4.43-2.672c-3.523-2.187-4.671-5.441-2.941-9.099
		c1.146-2.417,2.617-4.699,3.968-7.021c1.121-1.916,2.849-2.78,4.928-2.065c2.106,0.715,4.131,1.728,6.075,2.808
		c1.593,0.891,2.943,2.201,4.521,3.106c0.933,0.526,2.107,0.593,3.174,0.877c0.122-0.271,0.229-0.54,0.338-0.81
		c-0.959-2.12-2.916-3.349-4.577-4.833c-0.73-0.649-1.459-1.283-2.201-1.904c-1.146-0.971-1.201-2.079-0.796-3.483
		c1.741-6.047,6.399-8.909,11.772-11.029C564.029,304.252,565.677,304.861,566.877,305.914"/>
	<path clip-path="url(#SVGID_2_)" fill="#C0AB6A" d="M568.308,247.539c4.078,5.266,4.199,13.742,0.312,19.116
		c-1.782,2.471-4.172,4.104-7.102,4.738c-4.374,0.959-8.761,0.878-13.069-0.513c-3.616-1.187-5.062-3.225-4.926-6.966
		c0.026-0.755,0.094-1.512,0.148-2.267c-0.135-0.014-0.27-0.028-0.405-0.054c0.621-4.362,1.27-8.721,1.876-13.082
		c0.406-2.848,2.079-4.644,4.657-5.71C555.916,240.263,564.328,242.409,568.308,247.539"/>
	<path clip-path="url(#SVGID_2_)" fill="#C0AB6A" d="M563.071,216.111c1.134,2.12,1.553,4.631,1.931,5.806
		c-0.108,6.398-2.673,10.273-6.278,13.567c-2.941,2.686-6.25,4.535-10.448,4.36c-1.688-0.067-2.809-0.714-3.673-2.146
		c-1.161-1.93-2.511-3.754-3.686-5.67c-2.416-3.942-4.9-7.843-7.101-11.893c-1.322-2.43-0.472-4.874,1.229-6.872
		C542.685,204.285,557.536,205.757,563.071,216.111"/>
	<path clip-path="url(#SVGID_2_)" fill="#C0AB6A" d="M561.573,289.011c2.268,7.654-4.686,18.266-14.216,17.833
		c-4.779-0.268-8.991-1.943-12.555-5.183c-3.39-3.079-3.916-7.979-0.595-12.083c2.729-3.388,4.874-7.343,6.817-11.271
		c3.064-6.196,3.957-6.629,9.788-2.889C555.942,278.711,559.791,282.964,561.573,289.011"/>
	<path clip-path="url(#SVGID_2_)" fill="#C0AB6A" d="M537.745,189.624c1.93,2.107,2.646,4.631,2.604,7.439
		c-0.079,3.753-1.105,7.25-3.267,10.301c-0.755,1.066-2.051,1.755-3.118,2.579c-0.324,0.255-0.77,0.363-1.065,0.634
		c-2.579,2.295-3.403,2.416-6.427,0.716c-2.524-1.445-4.969-3.038-7.52-4.416c-3.024-1.633-6.116-3.145-9.207-4.657
		c-3.483-1.701-3.821-2.835-2.214-6.318c1.363-2.957,2.7-5.846,5.305-7.965C521.154,181.147,531.21,182.497,537.745,189.624"/>
	<path clip-path="url(#SVGID_2_)" fill="#C0AB6A" d="M490.129,269.827c10.962,0.122,17.254-8.922,16.983-17.076
		c-0.014-9.857-8.275-17.766-18.63-17.47c-8.748,0.27-16.848,6.237-16.901,16.97C471.527,262.497,479.02,269.706,490.129,269.827
		 M531.75,243.894c4.954,1.687,7.439,6.602,5.927,11.367c-1.229,3.902-3.794,5.819-7.898,5.873c-0.972,0.013-1.93,0-3.118,0
		c-0.107,0.729-0.216,1.43-0.282,1.958c1.942,1.443,3.928,2.577,5.495,4.143c2.913,2.904,3.252,6.98,1.159,10.045
		c-2.673,3.901-8.396,4.968-12.23,2.295c-0.527-0.378-1.012-0.958-1.594-1.081c-0.526-0.108-1.16,0.27-1.795,0.446
		c0.243,0.595,0.27,0.824,0.405,0.958c4.32,4.375,4.158,8.695-0.5,12.704c-2.295,1.958-4.819,3.132-7.965,2.983
		c-3.051-0.147-5.358-1.336-7.021-3.9c-0.473-0.73-0.498-2.039-2.038-1.783c-0.094,0.203-0.351,0.487-0.324,0.729
		c0.757,6.237-6.182,10.787-12.663,8.626c-3.414-1.147-6.237-3.09-5.993-7.397c0.013-0.487-0.487-1.08-0.905-1.431
		c-0.135-0.094-0.919,0.377-1.215,0.743c-3.47,4.305-7.628,5.156-12.487,2.739c-3.334-1.66-5.805-6.142-3.117-10.056
		c0.296-0.433,0.499-0.932,0.796-1.499c-0.621-0.662-1.202-1.27-1.729-1.837c-1.836,0.716-3.482,1.553-5.224,2.012
		c-3.713,0.972-6.385-0.108-8.073-2.996c-1.877-3.213-1.524-6.954,0.985-9.559c0.811-0.85,1.891-1.444,2.714-2.295
		c0.378-0.378,0.756-1.283,0.568-1.579c-0.312-0.513-1.067-0.81-1.702-1.013c-0.352-0.121-0.838,0.095-1.255,0.216
		c-4.63,1.337-9.843-2.161-10.343-7.978c-0.403-4.63,4.051-9.005,9.047-9.085c0.741-0.015,1.471,0.08,2.213,0.121
		c0.5-0.958,0.566-1.566-0.485-2.161c-1.486-0.837-3.065-1.7-4.199-2.916c-4.104-4.36-2.633-11.879,2.727-14.606
		c2.079-1.067,4.159-0.932,6.236-0.054c1.176,0.485,2.31,1.026,4.119,1.85c-0.419-1.188-0.526-1.863-0.864-2.377
		c-3.268-5.022-1.62-11.448,3.726-14.269c3.524-1.877,7.195-0.999,10.125,2.349c0.703,0.81,0.973,2.255,2.782,2.132
		c0.201-2.726-0.729-5.697,1.43-7.923c0.958-0.986,2.012-2.079,3.241-2.579c1.876-0.742,3.928-1.35,5.913-1.417
		c5.358-0.162,8.599,3.198,9.962,10.246c0.662-0.527,1.337-0.837,1.661-1.364c2.105-3.456,5.116-4.832,9.059-3.996
		c4.238,0.904,7.155,3.375,8.45,7.601c0.472,1.565,0.122,3.023-0.796,4.293c-0.771,1.053-0.54,1.768,0.702,2.51
		c1.971-1.943,4.495-2.659,7.276-1.971c2.727,0.69,4.833,2.323,6.385,4.671c2.729,4.119,1.579,7.898-3.929,12.312
		c0.324,0.824,0.582,1.499,0.796,2.012C527.984,243.111,529.941,243.273,531.75,243.894"/>
	<path clip-path="url(#SVGID_2_)" fill="#C0AB6A" d="M531.737,301.836c3.308,3.159,4.685,6.778,4.685,12.961
		c-0.176,4.455-1.512,9.112-5.386,12.73c-5.237,4.913-13.068,5.13-18.577,0.554c-2.835-2.363-5.251-5.076-7.088-8.33
		c-1.524-2.727-1.889-5.696-2.158-8.694c-0.189-2.093,1.754-4.239,3.753-4.536c5.413-0.81,10.326-2.916,14.971-5.737
		C525.865,298.394,528.403,298.664,531.737,301.836"/>
	<path clip-path="url(#SVGID_2_)" fill="#C0AB6A" d="M533.1,159.763c3.308,5.575,3.673,11.38,1.594,17.388
		c-0.473,1.363-1.417,2.564-2.254,4.022c-4.119-1.943-7.574-3.82-11.624-4.522c-2.754-0.473-3.523-3.362-4.05-5.724
		c-0.338-1.58,0.067-3.388,0.391-5.049c0.418-2.214,1.134-4.373,1.634-6.575c0.188-0.85,0.188-1.984-0.932-2.038h-0.068
		l10.301-6.021C529.658,154.132,531.427,156.94,533.1,159.763"/>
	<path clip-path="url(#SVGID_2_)" fill="#C0AB6A" d="M531.008,338.259c0.054,2.038,0.041,4.091-0.081,6.142
		c-0.243,4.172-1.754,7.736-5.184,10.328c-1.121,0.838-2.187,1.769-3.254,2.674c-0.865,0.742-1.674,1.524-2.417,2.361l-8.627-7.128
		c1.851-0.89,1.337-2.146,1.229-3.226c-0.202-2.147-0.608-4.28-0.702-6.426c-0.108-2.146,0.594-3.834,2.039-5.765
		c2.024-2.686,4.495-2.984,7.208-3.347c1.594-0.23,3.228-0.284,4.847-0.297C529.212,333.547,530.927,335.154,531.008,338.259"/>
	<path clip-path="url(#SVGID_2_)" fill="#C0AB6A" d="M523.49,139.418c0.863,4.266,2.576,8.113,4.602,11.826l-10.3,6.021
		c-0.796,0-2.025,0.445-2.295,1.025c-0.905,1.945-1.336,4.091-2.132,6.075c-1.554,3.849-4.037,6.791-8.074,8.277
		c-1.972,0.728-3.738,0.567-5.616-0.27c-1.85-0.824-3.78-1.486-5.724-2.092c-2.836-0.892-4.117-2.633-3.686-5.577
		c0.824-5.548,3.496-9.922,8.639-12.473c3.565-1.769,7.143-3.565,10.828-5.036c4.022-1.621,6.885-4.725,10.233-7.209
		c0.824-0.621,1.579-1.337,2.579-2.187C522.99,138.54,523.394,138.959,523.49,139.418"/>
	<path clip-path="url(#SVGID_2_)" fill="#C0AB6A" d="M526.527,129.806l-0.352,1.039c-2.821,1.877-5.481,3.537-8.709,4.361
		c-4.252,1.08-8.328,2.862-12.526,4.184c-5.778,1.811-11.044,4.348-14.62,9.504c-0.23,0.325-0.662,0.5-1.324,0.987
		c-1.376-1.593-2.767-3.051-3.981-4.645c-2.498-3.254-5.67-5.521-9.437-7.127c-5.549-2.363-11.044-4.874-16.565-7.304
		c-0.676-0.298-1.376-0.473-1.943-0.662l-0.432-1.782c2.97-0.688,5.967-1.242,9.017-1.633c5.333-0.689,10.692-1.39,16.066-1.539
		c7.425-0.216,14.891-0.162,22.315,0.243C511.784,125.864,519.263,127.403,526.527,129.806"/>
	<path clip-path="url(#SVGID_2_)" fill="#C0AB6A" d="M511.446,352.636l8.627,7.128c-1.242,1.404-2.32,2.93-3.28,4.591
		c-1.215,2.093-2.902,3.914-4.685,6.263c-2.579-2.375-4.684-4.198-6.655-6.168c-2.781-2.756-5.833-5.09-9.424-6.696
		c-4.562-2.052-7.559-5.615-9.611-10.071c-0.136-0.297-0.283-0.58-0.391-0.877c-1.553-3.956-0.216-6.224,4.009-6.791
		c4.401-0.595,4.401-0.595,7.763-2.78c0.769,0.296,1.539,0.701,2.376,0.904c5.616,1.336,8.208,5.521,9.963,10.502
		C510.582,349.923,510.974,351.206,511.446,352.636"/>
	<path clip-path="url(#SVGID_2_)" fill="#C0AB6A" d="M514.04,376.261l0.161,1.419c-0.702,0.134-1.404,0.242-2.106,0.35
		c-6.601,0.985-13.162,2.39-19.817,2.633c-6.777,0.244-13.607,0.121-20.345-0.594c-7.614-0.797-15.134-2.268-22.505-4.359
		l0.487-1.702c3.359-1.634,6.372-3.308,9.544-4.563c4.307-1.688,8.788-2.902,13.095-4.576c3.132-1.229,6.034-2.942,7.56-6.236
		c0.243-0.5,0.541-0.973,0.864-1.539c1.08,1.43,1.863,2.74,2.89,3.793c4.954,5.021,10.8,8.52,17.685,10.22
		C505.803,372.171,510.137,373.048,514.04,376.261"/>
	<path clip-path="url(#SVGID_2_)" fill="#C0AB6A" d="M506.398,188.382c0.593,2.485,0.377,4.941-0.648,7.277
		c-0.972,2.242-2.578,3.402-5.252,3.456c-6.425,0.121-12.852,0.5-19.265,0.865c-3.644,0.201-5.102-0.636-6.088-4.212
		c-0.647-2.363-1.013-4.82-1.499-7.224c0.231-8.37,5.4-14.107,13.649-15.295c5.251-0.769,9.922,1.661,13.688,5.36
		C503.711,181.294,505.494,184.63,506.398,188.382"/>
	<path clip-path="url(#SVGID_2_)" fill="#C0AB6A" d="M500.511,312.313c2.93,8.207-1.188,22.221-12.055,24.313
		c-1.162,0.216-2.336,0.325-3.511,0.485c-9.368-0.147-16.672-7.829-15.673-16.821c0.5-4.562,3.172-7.964,6.967-10.339
		c1.093-0.676,2.685-0.757,4.05-0.716c5.156,0.095,10.326,0.324,15.484,0.58c1.053,0.054,2.159,0.257,3.091,0.702
		C499.553,310.84,500.242,311.597,500.511,312.313"/>
	<path clip-path="url(#SVGID_2_)" fill="#C0AB6A" d="M486.877,168.631c0.013,0.19-0.149,0.391-0.257,0.662
		c-2.876,1.849-5.685,1.12-8.356-0.392c-0.324,0.121-0.595,0.135-0.716,0.284c-2.659,3.078-5.859,3.55-8.883,0.837
		c-1.538-1.378-2.674-3.334-3.604-5.225c-1.08-2.187-1.729-4.59-2.592-6.899c-0.067-0.175-0.311-0.283-0.487-0.431
		c-1.444,0.405-1.74,1.377-1.376,2.726c0.526,1.971,1.094,3.942,1.525,5.941c1.08,5.008-0.257,8.518-4.307,10.327
		c-1.7,0.756-3.739,0.824-5.656,0.986c-2.862,0.216-5.86,0.716-7.924-2.214c-2.295-3.24-3.512-6.791-2.351-10.639
		c0.675-2.2,1.932-4.347,3.349-6.196c7.694-10.03,7.735-9.989,12.92-21.492c5.777,5.724,12.717,9.261,19.129,13.554
		C483.731,154.768,486.228,161.234,486.877,168.631"/>
	<path clip-path="url(#SVGID_2_)" fill="#C0AB6A" d="M477.858,339.313c3.43,0.85,4.699,3.888,3.012,6.965
		c-1.984,3.632-4.982,6.237-8.56,8.087c-5.292,2.741-10.314,5.804-14.606,10.003c-1.351,1.324-3.146,2.201-5.13,3.538
		c-1.107-2.255-2.175-4.442-3.255-6.616c-1.876-3.752-3.739-7.505-5.642-11.246c-0.636-1.241-1.391-2.429-2.053-3.658
		c-3.522-6.56,1.593-15.822,7.628-17.334c2.417-0.608,4.604-0.296,6.264,1.378c1.944,1.971,3.537,4.292,5.238,6.506
		c0.918,1.188,0.565,2.403-0.04,3.632c-0.608,1.255-1.297,2.497-1.688,3.821c-0.582,2.011-0.258,2.389,2.389,3.591
		c0.702-1.121,1.444-2.282,2.16-3.444c0.837-1.389,1.565-2.834,2.484-4.156c1.389-2.025,3.227-3.052,5.818-2.35
		C473.849,338.556,475.875,338.826,477.858,339.313"/>
	<path clip-path="url(#SVGID_2_)" fill="#C0AB6A" d="M473.404,198.453c0.203,2.525-0.067,2.89-2.431,3.807
		c-3.213,1.255-6.452,2.445-9.584,3.862c-1.85,0.837-3.536,2.064-5.266,3.146c-3.496,2.2-6.062,1.605-9.234-1
		c-2.998-2.457-5.008-5.251-5.615-9.058c-0.135-0.838-0.203-1.701-0.351-3.092c0.404-2.053,0.742-4.644,1.512-7.087
		c0.432-1.378,1.363-2.782,2.47-3.713c5.428-4.536,12.165-6.142,18.859-2.092C469.461,186.681,472.836,191.703,473.404,198.453"/>
	<path clip-path="url(#SVGID_2_)" fill="#C0AB6A" d="M466.115,305.103c2.375,1.499,3.267,3.444,2.807,6.278
		c-0.823,4.941-3.227,8.842-7.088,11.921c-2.2,1.768-4.751,2.483-7.519,2.524c-8.315-0.702-13.838-4.253-15.094-11.948
		c-0.567-3.469,0.216-6.614,2.688-9.273c2.511-2.7,5.277-5.063,8.586-6.778c1.835-0.945,3.4-0.85,5.103,0.338
		C459.053,300.555,462.562,302.849,466.115,305.103"/>
	<path clip-path="url(#SVGID_2_)" fill="#C0AB6A" d="M456.636,128.361l0.433,1.782c-1.729,1.917-3.253,3.713-4.888,5.414
		c-2.024,2.105-4.212,4.05-6.195,6.183c-5.104,5.495-9.896,11.178-10.599,19.116c-0.014,0.27-0.338,0.513-0.634,0.932
		c-1-0.095-2.065-0.216-3.118-0.283c-3.012-0.203-6.035-0.716-9.006-0.5c-4.278,0.297-8.518,1.175-12.784,1.727
		c-3.388,0.432-6.804,0.744-10.381,1.135l-3.078-2.524c3.199-3.349,6.615-6.482,10.476-9.141
		c10.138-6.966,20.737-13.162,32.13-17.982C444.756,131.777,450.616,129.78,456.636,128.361"/>
	<path clip-path="url(#SVGID_2_)" fill="#C0AB6A" d="M449.915,374.006l-0.487,1.703c-1.944-0.541-3.874-1.121-5.804-1.757
		c-15.81-5.171-29.903-13.217-41.999-24.664c-1.892-1.782-3.821-3.509-5.71-5.265c-0.892-0.823-1.756-1.688-2.593-2.565l1.943-0.919
		c2.093,0,3.942-0.471,5.359,0.095c2.661,1.08,5.253,2.525,7.547,4.253c3.199,2.417,6.574,3.577,10.557,2.902
		c3.916-0.66,7.83-1.322,11.745-1.958c0.811-0.134,1.634-0.16,2.484-0.242c0.27,1.432,0.5,2.592,0.716,3.74
		c1.026,5.562,3.591,10.233,7.546,14.323C444.445,367,448.537,369.688,449.915,374.006"/>
	<path clip-path="url(#SVGID_2_)" fill="#C0AB6A" d="M445.324,209.767c2.43,1.633,2.888,4.211,1.445,6.79
		c-1.474,2.632-3.173,5.129-4.604,7.775c-1.579,2.931-2.982,5.941-4.415,8.952c-0.755,1.619-1.997,2.577-3.726,2.672
		c-9.112,0.526-17.982-6.642-17.995-15.943c0.027-3.74,1.363-7.074,4.05-9.545c5.278-4.859,11.476-6.763,18.454-4.333
		C440.937,206.972,443.204,208.335,445.324,209.767"/>
	<path clip-path="url(#SVGID_2_)" fill="#C0AB6A" d="M446.363,288.282c2.12,3.565,2.012,5.508-0.526,8.803
		c-3.793,4.913-8.87,6.966-15.917,7.033c-6.709-0.082-13.703-6.157-14.458-13.419c-0.392-3.618,0.986-6.79,2.741-9.773
		c3.562-6.062,8.95-9.086,15.97-9.396c1.876-0.095,3.077,0.647,3.982,2.159c0.324,0.554,0.567,1.147,0.891,1.714
		C441.477,279.71,443.839,284.044,446.363,288.282"/>
	<path clip-path="url(#SVGID_2_)" fill="#C0AB6A" d="M441.247,175.855c2.997,3.36,2.456,7.464-1.256,9.963
		c-0.7,0.472-1.458,0.93-2.065,1.525c-3.429,3.334-7.938,3.821-11.973,1.188c-1.892-1.229-3.728-2.525-5.591-3.78
		c-0.066-0.041-0.202,0.013-0.58,0.067c-0.891,1.364-0.095,2.322,0.688,3.213c1.215,1.363,2.511,2.659,3.767,3.996
		c3.847,4.091,3.349,8.384-1.282,11.38c-1.984,1.283-3.942,2.62-5.831,4.037c-1.162,0.878-2.31,1.175-3.619,0.608
		c-5.171-2.241-8.451-4.617-8.694-11.853c-0.135-3.969,0.122-7.979,0.607-11.921c0.635-5.223,0.23-10.314-0.836-15.402
		c-0.055-0.312-0.041-0.621-0.069-1.121c7.763,2.118,15.566,1.673,23.356,1.093c3.901-0.297,7.223,0.796,9.989,3.537
		C439.019,173.519,440.179,174.653,441.247,175.855"/>
	<path clip-path="url(#SVGID_2_)" fill="#C0AB6A" d="M440.962,325.489c0.392,1.484,0.474,3.254,0.041,4.684
		c-1.512,4.914-6.467,7.897-12.001,7.276c-4.28-0.472-8.519-1.376-12.799-1.809c-3.739-0.363-7.518-0.363-11.285-0.512
		c-0.932-0.027-1.864,0-3.132,0c0.095-1.472,0.255-2.619,0.242-3.754c-0.134-6.034-0.324-12.068-0.485-18.102
		c-0.054-2.377-0.244-4.753-0.148-7.115c0.175-4.874,3.793-8.829,8.571-9.572c2.646-0.418,4.537,0.985,6.306,2.633
		c1.89,1.755,3.632,3.659,5.575,5.346c3.093,2.659,3.105,5.805-0.136,8.424c-1.079,0.877-2.334,1.552-3.4,2.456
		c-1.54,1.296-3.214,2.538-3.416,5.684c1.471-0.567,2.417-0.931,3.361-1.296c3.309-1.283,6.629-2.525,9.922-3.847
		c3.457-1.378,8.804,1.16,10.503,4.521C439.504,322.14,440.503,323.747,440.962,325.489"/>
	<path clip-path="url(#SVGID_2_)" fill="#C0AB6A" d="M434.727,262.592c0.903,2.538,0.646,3.698-1.445,5.292
		c-3.037,2.321-5.399,3.064-11.649,3.037c-4.699-0.19-9.991-2.983-13.703-8.627c-1.944-2.956-2.404-6.088-1.473-9.558
		c2.39-8.842,11.598-17.414,24.004-14.242c2.942,0.77,4.09,2.74,3.739,5.75c-0.5,4.253-0.931,8.546-0.985,12.825
		C433.187,258.906,434.078,260.796,434.727,262.592"/>
	<path clip-path="url(#SVGID_2_)" fill="#C0AB6A" d="M412.883,219.243c1.27,3.753-0.999,6.372-4.131,7.628
		c-3.051,1.214-6.251,1.646-9.49,0.539c-1.837-0.621-3.673-1.283-5.562-1.701c-0.662-0.162-1.809,0.109-2.16,0.595
		c-0.364,0.513-0.351,0.905-0.148,1.214l-11.447,1.647c-1.729-2.443-3.686-4.725-5.67-7.006c-0.689-0.796-1.404-1.579-2.458-2.767
		c1.432-0.433,2.349-0.77,3.28-0.973c4.915-1.08,9.315-3.293,13.474-6.047c4.037-2.674,8.505-4.132,13.257-4.888
		c4.145-0.661,9.45,2.876,10.26,6.993C412.398,216.056,412.383,217.731,412.883,219.243"/>
	<path clip-path="url(#SVGID_2_)" fill="#C0AB6A" d="M410.345,282.814c3.295,3.888,2.254,9.154-2.43,11.138
		c-6.467,2.754-12.596,2.146-18.104-2.497c-0.338-0.271-0.648-0.567-0.959-0.878c-3.375-3.51-7.371-5.913-12.176-6.885
		c-1.027-0.203-1.999-0.581-3.457-0.999c2.254-2.443,3.955-5.104,5.238-7.912l12.986,1.486c-0.121,0.31-0.134,0.688-0.025,1.134
		c0.269,1.147,1.105,1.553,2.185,1.471c1.067-0.08,2.134-0.229,3.2-0.404c1.702-0.271,3.39-0.635,5.09-0.864
		c2.808-0.392,5.104,0.459,6.71,2.888C409.129,281.302,409.724,282.085,410.345,282.814"/>
	<path clip-path="url(#SVGID_2_)" fill="#C0AB6A" d="M407.55,267.088c0.999,2.322-0.647,4.859-3.455,5.63
		c-2.269,0.62-4.658,0.822-6.967,1.309c-1.472,0.309-2.901,0.769-4.347,1.201c-0.675,0.19-1.148,0.527-1.337,1.04l-12.986-1.486
		c0.782-1.673,1.417-3.415,1.931-5.184c1.134-3.875,2.943-7.384,4.765-10.908c1.862-3.591,4.807-5.562,8.829-6.331
		c3.457-0.648,6.143,0.418,7.816,3.185C404,259.218,405.849,263.145,407.55,267.088"/>
	<path clip-path="url(#SVGID_2_)" fill="#C0AB6A" d="M405.728,235.322c1.242,1.43,1.837,3.145,1.053,5.103
		c-0.878,2.201-1.512,4.494-2.498,6.642c-1.025,2.255-2.82,3.226-5.467,3.146c-5.264-0.162-9.031-2.661-11.69-6.966
		c-1.188-1.904-2.255-3.957-2.984-6.09c-0.999-2.943-2.484-5.548-4.197-7.992l11.447-1.646c0.271,0.404,0.85,0.675,1.337,0.891
		c3.227,1.484,6.521,2.834,9.705,4.4C403.663,233.405,404.837,234.309,405.728,235.322"/>
	<path clip-path="url(#SVGID_2_)" fill="#C0AB6A" d="M396.386,161.342l3.078,2.525c-1.161,4.602-2.039,9.288-3.55,13.755
		c-2.215,6.616-2.932,13.163-0.96,19.954c0.364,1.268,0.177,2.7,0.257,4.143c-0.945,0.217-1.566,0.365-2.174,0.514
		c-4.63,1.201-9.166,2.889-12.838,5.913c-4.333,3.577-8.356,7.493-13.933,8.33l-1.983-0.487c0.458-1.917,0.958-3.834,1.471-5.737
		c1.524-5.602,4.294-10.543,6.953-15.525c4.278-7.979,8.396-16.092,14.417-22.991C390.177,168.24,393.186,164.689,396.386,161.342"
		/>
	<path clip-path="url(#SVGID_2_)" fill="#C0AB6A" d="M395.266,340.541l-1.945,0.919c-2.483-2.646-4.697-5.521-6.735-8.546
		c-3.361-5.008-6.804-9.963-10.125-14.999c-3.023-4.603-5.062-9.679-6.777-14.904c-1.984-6.007-4.104-11.974-5.954-18.022
		c-0.176-0.553-0.322-1.12-0.473-1.674l1.998-0.513c0.015,0.013,0.177,0.297,0.419,0.487c3.754,2.78,7.061,5.926,9.571,9.962
		c0.959,1.526,2.795,2.7,4.47,3.551c4.671,2.362,9.598,3.834,14.943,3.239c0.284-0.026,0.582,0.108,1.04,0.203
		c-0.689,1.417-1.485,2.687-1.957,4.076c-2.079,6.184-2.147,12.421-0.608,18.779c0.662,2.7,0.904,5.549,0.917,8.33
		C394.078,334.681,394.996,337.732,395.266,340.541"/>
	<path clip-path="url(#SVGID_2_)" fill="#C0AB6A" d="M380.78,250.267c1.822,2.363,1.891,2.78-0.135,4.954
		c-4.657,4.968-7.775,10.827-10.408,17.023c-1.499,3.524-3.268,6.94-4.982,10.557l-1.997,0.513c-0.743-2.754-1.283-5.562-1.85-8.357
		c-1.363-6.789-1.836-13.647-1.769-20.573c0.297-5.804,0.364-11.637,0.932-17.415c0.702-7.088,2.024-14.067,3.712-20.979
		l1.983,0.486c1.271,3.51,2.904,6.439,3.295,9.531c0.5,3.887,1.566,7.587,2.472,11.34c1.012,4.239,3.375,7.667,6.493,10.625
		C379.295,248.714,380.12,249.43,380.78,250.267"/>
</g>
</svg>
